<?xml version="1.0" encoding="UTF-8" standalone="no"?>
<!-- Created with Inkscape (http://www.inkscape.org/) -->

<svg
   xmlns:dc="http://purl.org/dc/elements/1.1/"
   xmlns:cc="http://creativecommons.org/ns#"
   xmlns:rdf="http://www.w3.org/1999/02/22-rdf-syntax-ns#"
   xmlns:svg="http://www.w3.org/2000/svg"
   xmlns="http://www.w3.org/2000/svg"
   xmlns:xlink="http://www.w3.org/1999/xlink"
   xmlns:sodipodi="http://sodipodi.sourceforge.net/DTD/sodipodi-0.dtd"
   xmlns:inkscape="http://www.inkscape.org/namespaces/inkscape"
   width="210mm"
   height="297mm"
   viewBox="0 0 210 297"
   version="1.1"
   id="svg16"
   enable-background="new"
   inkscape:version="0.92.3 (2405546, 2018-03-11)"
   sodipodi:docname="icon.svg"
   inkscape:export-filename="C:\Users\evanr\Documents\app\android\app\src\main\res\mipmap-xxhdpi\ic_launcher.png"
   inkscape:export-xdpi="24.69075"
   inkscape:export-ydpi="24.69075">
  <defs
     id="defs10">
    <linearGradient
       inkscape:collect="always"
       id="linearGradient6563">
      <stop
         style="stop-color:#000000;stop-opacity:0.29803923"
         offset="0"
         id="stop6559" />
      <stop
         style="stop-color:#000000;stop-opacity:0.04040404"
         offset="1"
         id="stop6561" />
    </linearGradient>
    <filter
       inkscape:collect="always"
       style="color-interpolation-filters:sRGB"
       id="filter1061">
      <feBlend
         inkscape:collect="always"
         mode="screen"
         in2="BackgroundImage"
         id="feBlend1063" />
    </filter>
    <filter
       style="color-interpolation-filters:sRGB;"
       inkscape:label="Invert"
       id="filter1189">
      <feColorMatrix
         values="1 0 0 0 0 0 1 0 0 0 0 0 1 0 0 0.21 0.72 0.07 0.42 0 "
         result="color2"
         id="feColorMatrix1187" />
    </filter>
    <filter
       style="color-interpolation-filters:sRGB;"
       inkscape:label="Drop Shadow"
       id="filter1419">
      <feFlood
         flood-opacity="0.811765"
         flood-color="rgb(2,119,188)"
         result="flood"
         id="feFlood1409" />
      <feComposite
         in="flood"
         in2="SourceGraphic"
         operator="in"
         result="composite1"
         id="feComposite1411" />
      <feGaussianBlur
         in="composite1"
         stdDeviation="0"
         result="blur"
         id="feGaussianBlur1413" />
      <feOffset
         dx="0"
         dy="1"
         result="offset"
         id="feOffset1415" />
      <feComposite
         in="SourceGraphic"
         in2="offset"
         operator="over"
         result="composite2"
         id="feComposite1417" />
    </filter>
    <filter
       style="color-interpolation-filters:sRGB;"
       inkscape:label="Drop Shadow"
       id="filter6022">
      <feFlood
         flood-opacity="0.443137"
         flood-color="rgb(0,0,0)"
         result="flood"
         id="feFlood6012" />
      <feComposite
         in="SourceGraphic"
         in2="flood"
         operator="in"
         result="composite1"
         id="feComposite6014" />
      <feGaussianBlur
         in="composite1"
         stdDeviation="0"
         result="blur"
         id="feGaussianBlur6016" />
      <feOffset
         dx="0"
         dy="3"
         result="offset"
         id="feOffset6018" />
      <feComposite
         in="SourceGraphic"
         in2="offset"
         operator="over"
         result="composite2"
         id="feComposite6020" />
    </filter>
    <linearGradient
       inkscape:collect="always"
       xlink:href="#linearGradient6563"
       id="linearGradient6565"
       x1="325.2691"
       y1="358.40958"
       x2="103.34412"
       y2="39.733818"
       gradientUnits="userSpaceOnUse" />
  </defs>
  <sodipodi:namedview
     id="base"
     pagecolor="#ffffff"
     bordercolor="#666666"
     borderopacity="1.0"
     inkscape:pageopacity="0.0"
     inkscape:pageshadow="2"
     inkscape:zoom="0.35355339"
     inkscape:cx="-95.942867"
     inkscape:cy="529.633"
     inkscape:document-units="mm"
     inkscape:current-layer="layer2"
     showgrid="false"
     inkscape:window-width="1920"
     inkscape:window-height="1021"
     inkscape:window-x="-8"
     inkscape:window-y="-8"
     inkscape:window-maximized="1"
     inkscape:lockguides="true" />
  <metadata
     id="metadata13">
    <rdf:RDF>
      <cc:Work
         rdf:about="">
        <dc:format>image/svg+xml</dc:format>
        <dc:type
           rdf:resource="http://purl.org/dc/dcmitype/StillImage" />
        <dc:title />
      </cc:Work>
    </rdf:RDF>
  </metadata>
  <g
     inkscape:groupmode="layer"
     id="layer2"
     inkscape:label="Layer 2"
     style="filter:url(#filter1061)">
    <circle
       inkscape:export-filename="C:\Users\evanr\Desktop\ic_launcher.png"
       inkscape:export-ydpi="51.027557"
       inkscape:export-xdpi="51.027557"
       id="path18"
       cx="105.07738"
       cy="108.76786"
       style="fill:#0078bb;fill-opacity:0.93939394;stroke-width:0.28804305"
       r="61.723515" />
    <g
       id="text5879"
       style="font-style:normal;font-variant:normal;font-weight:normal;font-stretch:normal;font-size:78.10480499px;line-height:1.25;font-family:KaiTi;-inkscape-font-specification:KaiTi;letter-spacing:0px;word-spacing:0px;fill:#badaed;fill-opacity:1;stroke:none;stroke-width:1.95262015;filter:url(#filter1189)"
       transform="matrix(0.99793633,0.04629327,-0.04638511,0.99991617,0,0)"
       aria-label="文" />
    <path
       inkscape:connector-curvature="0"
       style="fill:url(#linearGradient6565);fill-opacity:1;stroke-width:1.08866668"
       d="M 223.31641,0 174.87695,21.16797 149.0918,73.76954 128.52344,35.35547 103.34375,39.73243 133.43555,90.71094 73.73047,162.39063 33.13477,176.9336 0,274.62891 65.13867,353.77344 c 33.192025,17.31958 70.06497,26.39614 107.50391,26.46289 44.56272,-0.006 88.19128,-12.77624 125.72461,-36.79883 0.19694,-0.12622 0.39525,-0.25014 0.59179,-0.37695 6.34264,-4.08594 12.48332,-8.47717 18.4004,-13.1582 0.23842,-0.18876 0.47131,-0.38454 0.70898,-0.57422 5.75061,-4.58947 11.28087,-9.44842 16.57226,-14.56055 0.33962,-0.32781 0.67798,-0.65645 1.01563,-0.98632 5.29055,-5.16315 10.3327,-10.57486 15.10937,-16.2168 0.15961,-0.18858 0.32341,-0.3734 0.48243,-0.5625 4.87511,-5.80298 9.46454,-11.84009 13.75195,-18.08985 0.11959,-0.17409 0.23829,-0.34899 0.35742,-0.52343 4.31431,-6.31772 8.31524,-12.84383 11.98828,-19.55469 0.0139,-0.0253 0.0272,-0.0508 0.041,-0.0762 7.40991,-13.576 13.45136,-27.85525 18.03516,-42.62696 0.0524,-0.16913 0.10423,-0.3385 0.15624,-0.50781 2.18446,-7.11611 4.02706,-14.3327 5.52149,-21.625 0.0903,-0.44037 0.18563,-0.87899 0.27344,-1.32031 1.41597,-7.10906 2.49982,-14.28026 3.24804,-21.49024 0.056,-0.53669 0.12336,-1.06957 0.17579,-1.60742 v -0.002 c 3e-5,-9.8e-4 -4e-5,-0.003 0,-0.004 0.0831,-2.52207 0.12934,-5.06222 0.13085,-7.62304 -0.0631,-7.10056 -60.47158,-71.51484 -61.18164,-78.58008 l -32.97851,15.32031 z"
       id="path18-2"
       transform="matrix(0.26458333,0,0,0.26458333,59.399101,69.887066)"
       sodipodi:nodetypes="ccccccccccccccccccccccccccccccccccc" />
    <g
       transform="matrix(0.72997905,-0.01772884,0.01772884,0.72997905,10.036459,14.766172)"
       id="text5886"
       style="font-style:normal;font-variant:normal;font-weight:normal;font-stretch:normal;font-size:62.07560349px;line-height:1.25;font-family:KaiTi;-inkscape-font-specification:KaiTi;letter-spacing:0px;word-spacing:0px;fill:#000000;fill-opacity:1;stroke:none;stroke-width:1.55189002"
       aria-label="文">
      <path
         sodipodi:nodetypes="ccccccccccccccccccccc"
         inkscape:connector-curvature="0"
         id="path5888"
         d="m 129.20478,137.52746 -9.97389,-20.53493 -20.059697,23.38837 c 0,0 -9.236238,0.57439 -8.142431,-3.80084 l 22.257998,-25.4399 -10.45167,-18.730732 c 0,0 3.47464,-1.762888 9.15929,-1.363966 l 7.11304,14.095608 9.80307,-18.827623 H 92.569455 c 0,0 -1.296498,-2.255284 0,-7.241815 h 23.755375 c -1.15699,-2.859553 -2.60865,-5.747366 -3.54693,-7.945461 0,0 1.3141,-1.280216 6.69955,-1.180485 2.17084,3.03094 2.79416,5.717247 4.11085,9.125946 h 23.05482 c 0.99731,4.188686 0,7.241815 0,7.241815 H 138.4032 L 125.59148,111.2614 c 11.25361,22.64299 12.87546,24.01368 12.87546,24.01368 -4.04255,3.8191 -9.26216,2.25238 -9.26216,2.25238 z"
         style="font-style:normal;font-variant:normal;font-weight:normal;font-stretch:normal;font-family:'Microsoft JhengHei UI';-inkscape-font-specification:'Microsoft JhengHei UI';fill:#badaed;fill-opacity:1;stroke-width:1.55189002" />
    </g>
    <path
       style="font-style:normal;font-variant:normal;font-weight:normal;font-stretch:normal;font-size:medium;line-height:1.25;font-family:sans-serif;-inkscape-font-specification:sans-serif;letter-spacing:0px;word-spacing:0px;fill:#badaed;fill-opacity:1;stroke:none;stroke-width:1.93322647"
       d="m 150.34821,91.945915 c -0.41629,-0.161704 -5.0101,0.52344 -9.57761,1.834987 0,0 -71.625089,20.805898 -82.567887,27.239608 -1.481497,0.98553 13.492071,17.82618 13.492071,17.82618 2.584452,3.41464 18.43146,6.60549 32.980566,4.83299 16.36664,-1.99393 41.40323,-19.37705 45.79662,-43.67724 0,0 1.30528,-6.426896 -0.12376,-8.056525 z"
       id="path1065" />
    <path
       style="fill:#ffffff;fill-opacity:1;stroke:none;stroke-width:0.26458332;stroke-opacity:1"
       d="m 141.90218,116.701 c 0,2.24896 3.27352,0.89676 6.13293,4.44027 4.28097,5.9561 -4.76324,12.74311 -11.6424,6.26082 -7.18686,-5.86542 -14.05074,-8.36321 -18.65313,-3.43958 -2.55256,2.73072 4.72788,-1.08674 7.48627,5.50942 2.62496,6.27711 -3.91439,9.30725 -10.26439,6.52912 -5.78239,-4.67258 -12.30313,-9.92188 -18.785418,-6.21771 0,1.71979 5.509818,1.25029 4.129728,6.51511 -1.373474,5.23957 -8.832904,4.1327 -8.832904,4.1327 H 57.682268 c 9.751533,14.29854 26.909111,25.00492 47.395042,25.03321 26.17801,-0.0312 48.93131,-17.98091 55.05555,-43.43249 0.65326,-2.81749 0.34293,-2.59337 0.34293,-2.59337 0.21302,-5.5734 -10.49186,-8.35958 -18.57361,-2.7375 z"
       id="path18-6"
       transform="matrix(-1,0,0,1,210.06797,0)" />
  </g>
  <g
     inkscape:label="Layer 1"
     inkscape:groupmode="layer"
     id="layer1" />
</svg>
